<mxfile host="app.diagrams.net" modified="2024-06-13T03:16:14.922Z" agent="Mozilla/5.0 (Windows NT 10.0; Win64; x64) AppleWebKit/537.36 (KHTML, like Gecko) Chrome/125.0.0.0 Safari/537.36" etag="iT-Cb_umWSZVOsmdbCKK" version="24.5.4" type="device">
  <diagram name="페이지-1" id="yo45AJClyvnTsMUKf_Ob">
    <mxGraphModel dx="1195" dy="622" grid="1" gridSize="10" guides="1" tooltips="1" connect="1" arrows="1" fold="1" page="1" pageScale="1" pageWidth="827" pageHeight="1169" math="0" shadow="0">
      <root>
        <mxCell id="0" />
        <mxCell id="1" parent="0" />
        <mxCell id="uHjk5FgrAO1tdXNtxyRv-2" value="React" style="swimlane;whiteSpace=wrap;html=1;" parent="1" vertex="1">
          <mxGeometry x="20" y="20" width="480" height="120" as="geometry" />
        </mxCell>
        <mxCell id="uHjk5FgrAO1tdXNtxyRv-3" value="CSR" style="rounded=0;whiteSpace=wrap;html=1;" parent="uHjk5FgrAO1tdXNtxyRv-2" vertex="1">
          <mxGeometry x="20" y="40" width="120" height="60" as="geometry" />
        </mxCell>
        <mxCell id="uHjk5FgrAO1tdXNtxyRv-4" value="SPA" style="rounded=0;whiteSpace=wrap;html=1;" parent="uHjk5FgrAO1tdXNtxyRv-2" vertex="1">
          <mxGeometry x="180" y="40" width="120" height="60" as="geometry" />
        </mxCell>
        <mxCell id="uHjk5FgrAO1tdXNtxyRv-5" value="Virtual DOM" style="rounded=0;whiteSpace=wrap;html=1;" parent="uHjk5FgrAO1tdXNtxyRv-2" vertex="1">
          <mxGeometry x="340" y="40" width="120" height="60" as="geometry" />
        </mxCell>
        <mxCell id="uHjk5FgrAO1tdXNtxyRv-6" value="Virtual DOM" style="swimlane;whiteSpace=wrap;html=1;" parent="1" vertex="1">
          <mxGeometry x="20" y="160" width="480" height="240" as="geometry" />
        </mxCell>
        <mxCell id="kXzhzEdGI1KDdlHurPjn-2" style="edgeStyle=orthogonalEdgeStyle;rounded=0;orthogonalLoop=1;jettySize=auto;html=1;entryX=0;entryY=0.5;entryDx=0;entryDy=0;" edge="1" parent="uHjk5FgrAO1tdXNtxyRv-6" source="uHjk5FgrAO1tdXNtxyRv-7" target="kXzhzEdGI1KDdlHurPjn-1">
          <mxGeometry relative="1" as="geometry" />
        </mxCell>
        <mxCell id="uHjk5FgrAO1tdXNtxyRv-7" value="DOM(HTML)" style="rounded=0;whiteSpace=wrap;html=1;" parent="uHjk5FgrAO1tdXNtxyRv-6" vertex="1">
          <mxGeometry x="20" y="40" width="120" height="60" as="geometry" />
        </mxCell>
        <mxCell id="kXzhzEdGI1KDdlHurPjn-4" style="edgeStyle=orthogonalEdgeStyle;rounded=0;orthogonalLoop=1;jettySize=auto;html=1;exitX=0.5;exitY=1;exitDx=0;exitDy=0;entryX=0.5;entryY=0;entryDx=0;entryDy=0;" edge="1" parent="uHjk5FgrAO1tdXNtxyRv-6" source="kXzhzEdGI1KDdlHurPjn-1" target="kXzhzEdGI1KDdlHurPjn-3">
          <mxGeometry relative="1" as="geometry" />
        </mxCell>
        <mxCell id="kXzhzEdGI1KDdlHurPjn-1" value="Virtual DOM(Object)" style="rounded=0;whiteSpace=wrap;html=1;" vertex="1" parent="uHjk5FgrAO1tdXNtxyRv-6">
          <mxGeometry x="340" y="40" width="120" height="60" as="geometry" />
        </mxCell>
        <mxCell id="kXzhzEdGI1KDdlHurPjn-5" style="rounded=0;orthogonalLoop=1;jettySize=auto;html=1;exitX=0;exitY=0.25;exitDx=0;exitDy=0;entryX=1;entryY=0.75;entryDx=0;entryDy=0;startArrow=classic;startFill=1;" edge="1" parent="uHjk5FgrAO1tdXNtxyRv-6" source="kXzhzEdGI1KDdlHurPjn-3" target="uHjk5FgrAO1tdXNtxyRv-7">
          <mxGeometry relative="1" as="geometry" />
        </mxCell>
        <mxCell id="kXzhzEdGI1KDdlHurPjn-6" value="비교" style="edgeLabel;html=1;align=center;verticalAlign=middle;resizable=0;points=[];" vertex="1" connectable="0" parent="kXzhzEdGI1KDdlHurPjn-5">
          <mxGeometry x="0.109" y="-1" relative="1" as="geometry">
            <mxPoint as="offset" />
          </mxGeometry>
        </mxCell>
        <mxCell id="kXzhzEdGI1KDdlHurPjn-8" style="edgeStyle=orthogonalEdgeStyle;rounded=0;orthogonalLoop=1;jettySize=auto;html=1;exitX=0;exitY=0.5;exitDx=0;exitDy=0;entryX=1;entryY=0.5;entryDx=0;entryDy=0;" edge="1" parent="uHjk5FgrAO1tdXNtxyRv-6" source="kXzhzEdGI1KDdlHurPjn-3" target="kXzhzEdGI1KDdlHurPjn-7">
          <mxGeometry relative="1" as="geometry" />
        </mxCell>
        <mxCell id="kXzhzEdGI1KDdlHurPjn-9" value="달라진 내용만 적용" style="edgeLabel;html=1;align=center;verticalAlign=middle;resizable=0;points=[];" vertex="1" connectable="0" parent="kXzhzEdGI1KDdlHurPjn-8">
          <mxGeometry x="0.0631" relative="1" as="geometry">
            <mxPoint as="offset" />
          </mxGeometry>
        </mxCell>
        <mxCell id="kXzhzEdGI1KDdlHurPjn-3" value="Virtual DOM(Object)" style="rounded=0;whiteSpace=wrap;html=1;" vertex="1" parent="uHjk5FgrAO1tdXNtxyRv-6">
          <mxGeometry x="340" y="130" width="120" height="60" as="geometry" />
        </mxCell>
        <mxCell id="kXzhzEdGI1KDdlHurPjn-7" value="DOM(HTML)" style="rounded=0;whiteSpace=wrap;html=1;" vertex="1" parent="uHjk5FgrAO1tdXNtxyRv-6">
          <mxGeometry x="20" y="130" width="120" height="60" as="geometry" />
        </mxCell>
        <mxCell id="kXzhzEdGI1KDdlHurPjn-10" value="State(상태값)" style="swimlane;whiteSpace=wrap;html=1;" vertex="1" parent="1">
          <mxGeometry x="520" y="160" width="480" height="690" as="geometry" />
        </mxCell>
        <mxCell id="kXzhzEdGI1KDdlHurPjn-13" style="edgeStyle=orthogonalEdgeStyle;rounded=0;orthogonalLoop=1;jettySize=auto;html=1;exitX=0.5;exitY=1;exitDx=0;exitDy=0;entryX=0.5;entryY=0;entryDx=0;entryDy=0;" edge="1" parent="kXzhzEdGI1KDdlHurPjn-10" source="kXzhzEdGI1KDdlHurPjn-11" target="kXzhzEdGI1KDdlHurPjn-12">
          <mxGeometry relative="1" as="geometry" />
        </mxCell>
        <mxCell id="kXzhzEdGI1KDdlHurPjn-33" style="edgeStyle=orthogonalEdgeStyle;rounded=0;orthogonalLoop=1;jettySize=auto;html=1;exitX=1;exitY=0.5;exitDx=0;exitDy=0;" edge="1" parent="kXzhzEdGI1KDdlHurPjn-10" source="kXzhzEdGI1KDdlHurPjn-11" target="kXzhzEdGI1KDdlHurPjn-16">
          <mxGeometry relative="1" as="geometry" />
        </mxCell>
        <mxCell id="kXzhzEdGI1KDdlHurPjn-11" value="Virtual DOM(Object)" style="rounded=0;whiteSpace=wrap;html=1;" vertex="1" parent="kXzhzEdGI1KDdlHurPjn-10">
          <mxGeometry x="20" y="40" width="120" height="60" as="geometry" />
        </mxCell>
        <mxCell id="kXzhzEdGI1KDdlHurPjn-15" style="edgeStyle=orthogonalEdgeStyle;rounded=0;orthogonalLoop=1;jettySize=auto;html=1;exitX=0.5;exitY=1;exitDx=0;exitDy=0;entryX=0.5;entryY=0;entryDx=0;entryDy=0;" edge="1" parent="kXzhzEdGI1KDdlHurPjn-10" source="kXzhzEdGI1KDdlHurPjn-12" target="kXzhzEdGI1KDdlHurPjn-14">
          <mxGeometry relative="1" as="geometry" />
        </mxCell>
        <mxCell id="kXzhzEdGI1KDdlHurPjn-12" value="let a = 1;" style="rounded=0;whiteSpace=wrap;html=1;" vertex="1" parent="kXzhzEdGI1KDdlHurPjn-10">
          <mxGeometry x="20" y="120" width="120" height="60" as="geometry" />
        </mxCell>
        <mxCell id="kXzhzEdGI1KDdlHurPjn-19" style="edgeStyle=orthogonalEdgeStyle;rounded=0;orthogonalLoop=1;jettySize=auto;html=1;exitX=0.5;exitY=1;exitDx=0;exitDy=0;entryX=0.5;entryY=0;entryDx=0;entryDy=0;" edge="1" parent="kXzhzEdGI1KDdlHurPjn-10" source="kXzhzEdGI1KDdlHurPjn-14" target="kXzhzEdGI1KDdlHurPjn-18">
          <mxGeometry relative="1" as="geometry" />
        </mxCell>
        <mxCell id="kXzhzEdGI1KDdlHurPjn-14" value="a = 2;" style="rounded=0;whiteSpace=wrap;html=1;" vertex="1" parent="kXzhzEdGI1KDdlHurPjn-10">
          <mxGeometry x="20" y="200" width="120" height="60" as="geometry" />
        </mxCell>
        <mxCell id="kXzhzEdGI1KDdlHurPjn-16" value="DOM(HTML)" style="rounded=0;whiteSpace=wrap;html=1;" vertex="1" parent="kXzhzEdGI1KDdlHurPjn-10">
          <mxGeometry x="340" y="40" width="120" height="60" as="geometry" />
        </mxCell>
        <mxCell id="kXzhzEdGI1KDdlHurPjn-22" style="edgeStyle=orthogonalEdgeStyle;rounded=0;orthogonalLoop=1;jettySize=auto;html=1;exitX=0.5;exitY=1;exitDx=0;exitDy=0;entryX=0.5;entryY=0;entryDx=0;entryDy=0;" edge="1" parent="kXzhzEdGI1KDdlHurPjn-10" source="kXzhzEdGI1KDdlHurPjn-18" target="kXzhzEdGI1KDdlHurPjn-21">
          <mxGeometry relative="1" as="geometry" />
        </mxCell>
        <mxCell id="kXzhzEdGI1KDdlHurPjn-18" value="setState({a : 1})" style="rounded=0;whiteSpace=wrap;html=1;" vertex="1" parent="kXzhzEdGI1KDdlHurPjn-10">
          <mxGeometry x="20" y="280" width="120" height="60" as="geometry" />
        </mxCell>
        <mxCell id="kXzhzEdGI1KDdlHurPjn-24" style="edgeStyle=orthogonalEdgeStyle;rounded=0;orthogonalLoop=1;jettySize=auto;html=1;entryX=0;entryY=0.5;entryDx=0;entryDy=0;" edge="1" parent="kXzhzEdGI1KDdlHurPjn-10" source="kXzhzEdGI1KDdlHurPjn-21" target="kXzhzEdGI1KDdlHurPjn-23">
          <mxGeometry relative="1" as="geometry" />
        </mxCell>
        <mxCell id="kXzhzEdGI1KDdlHurPjn-26" style="edgeStyle=orthogonalEdgeStyle;rounded=0;orthogonalLoop=1;jettySize=auto;html=1;exitX=0.5;exitY=1;exitDx=0;exitDy=0;entryX=0.5;entryY=0;entryDx=0;entryDy=0;" edge="1" parent="kXzhzEdGI1KDdlHurPjn-10" source="kXzhzEdGI1KDdlHurPjn-21" target="kXzhzEdGI1KDdlHurPjn-25">
          <mxGeometry relative="1" as="geometry" />
        </mxCell>
        <mxCell id="kXzhzEdGI1KDdlHurPjn-21" value="Virtual DOM(Object)" style="rounded=0;whiteSpace=wrap;html=1;" vertex="1" parent="kXzhzEdGI1KDdlHurPjn-10">
          <mxGeometry x="20" y="360" width="120" height="60" as="geometry" />
        </mxCell>
        <mxCell id="kXzhzEdGI1KDdlHurPjn-23" value="DOM(HTML)" style="rounded=0;whiteSpace=wrap;html=1;" vertex="1" parent="kXzhzEdGI1KDdlHurPjn-10">
          <mxGeometry x="340" y="360" width="120" height="60" as="geometry" />
        </mxCell>
        <mxCell id="kXzhzEdGI1KDdlHurPjn-25" value="setState({a : 1})" style="rounded=0;whiteSpace=wrap;html=1;" vertex="1" parent="kXzhzEdGI1KDdlHurPjn-10">
          <mxGeometry x="20" y="440" width="120" height="60" as="geometry" />
        </mxCell>
        <mxCell id="kXzhzEdGI1KDdlHurPjn-27" style="edgeStyle=orthogonalEdgeStyle;rounded=0;orthogonalLoop=1;jettySize=auto;html=1;exitX=0.5;exitY=1;exitDx=0;exitDy=0;entryX=0.5;entryY=0;entryDx=0;entryDy=0;" edge="1" parent="kXzhzEdGI1KDdlHurPjn-10" target="kXzhzEdGI1KDdlHurPjn-28">
          <mxGeometry relative="1" as="geometry">
            <mxPoint x="80" y="500" as="sourcePoint" />
          </mxGeometry>
        </mxCell>
        <mxCell id="kXzhzEdGI1KDdlHurPjn-28" value="setState({a : 2})" style="rounded=0;whiteSpace=wrap;html=1;" vertex="1" parent="kXzhzEdGI1KDdlHurPjn-10">
          <mxGeometry x="20" y="520" width="120" height="60" as="geometry" />
        </mxCell>
        <mxCell id="kXzhzEdGI1KDdlHurPjn-29" style="edgeStyle=orthogonalEdgeStyle;rounded=0;orthogonalLoop=1;jettySize=auto;html=1;exitX=0.5;exitY=1;exitDx=0;exitDy=0;entryX=0.5;entryY=0;entryDx=0;entryDy=0;" edge="1" parent="kXzhzEdGI1KDdlHurPjn-10" target="kXzhzEdGI1KDdlHurPjn-31">
          <mxGeometry relative="1" as="geometry">
            <mxPoint x="80" y="580" as="sourcePoint" />
          </mxGeometry>
        </mxCell>
        <mxCell id="kXzhzEdGI1KDdlHurPjn-30" style="edgeStyle=orthogonalEdgeStyle;rounded=0;orthogonalLoop=1;jettySize=auto;html=1;entryX=0;entryY=0.5;entryDx=0;entryDy=0;" edge="1" parent="kXzhzEdGI1KDdlHurPjn-10" source="kXzhzEdGI1KDdlHurPjn-31" target="kXzhzEdGI1KDdlHurPjn-32">
          <mxGeometry relative="1" as="geometry" />
        </mxCell>
        <mxCell id="kXzhzEdGI1KDdlHurPjn-31" value="Virtual DOM(Object)" style="rounded=0;whiteSpace=wrap;html=1;" vertex="1" parent="kXzhzEdGI1KDdlHurPjn-10">
          <mxGeometry x="20" y="600" width="120" height="60" as="geometry" />
        </mxCell>
        <mxCell id="kXzhzEdGI1KDdlHurPjn-32" value="DOM(HTML)" style="rounded=0;whiteSpace=wrap;html=1;" vertex="1" parent="kXzhzEdGI1KDdlHurPjn-10">
          <mxGeometry x="340" y="600" width="120" height="60" as="geometry" />
        </mxCell>
        <mxCell id="kXzhzEdGI1KDdlHurPjn-34" value="Component Life Cycle" style="swimlane;whiteSpace=wrap;html=1;" vertex="1" parent="1">
          <mxGeometry x="1020" y="160" width="520" height="360" as="geometry" />
        </mxCell>
        <mxCell id="kXzhzEdGI1KDdlHurPjn-40" style="edgeStyle=orthogonalEdgeStyle;rounded=0;orthogonalLoop=1;jettySize=auto;html=1;exitX=0.5;exitY=1;exitDx=0;exitDy=0;" edge="1" parent="kXzhzEdGI1KDdlHurPjn-34" source="kXzhzEdGI1KDdlHurPjn-36" target="kXzhzEdGI1KDdlHurPjn-39">
          <mxGeometry relative="1" as="geometry">
            <mxPoint x="230" y="130" as="targetPoint" />
            <Array as="points">
              <mxPoint x="80" y="110" />
              <mxPoint x="80" y="110" />
            </Array>
          </mxGeometry>
        </mxCell>
        <mxCell id="kXzhzEdGI1KDdlHurPjn-36" value="Mount" style="rounded=0;whiteSpace=wrap;html=1;" vertex="1" parent="kXzhzEdGI1KDdlHurPjn-34">
          <mxGeometry x="20" y="40" width="120" height="60" as="geometry" />
        </mxCell>
        <mxCell id="kXzhzEdGI1KDdlHurPjn-42" style="rounded=0;orthogonalLoop=1;jettySize=auto;html=1;entryX=0.5;entryY=0;entryDx=0;entryDy=0;edgeStyle=orthogonalEdgeStyle;" edge="1" parent="kXzhzEdGI1KDdlHurPjn-34" source="kXzhzEdGI1KDdlHurPjn-39" target="kXzhzEdGI1KDdlHurPjn-41">
          <mxGeometry relative="1" as="geometry">
            <mxPoint x="250" y="290" as="sourcePoint" />
            <Array as="points">
              <mxPoint x="80" y="250" />
              <mxPoint x="80" y="250" />
            </Array>
          </mxGeometry>
        </mxCell>
        <mxCell id="kXzhzEdGI1KDdlHurPjn-47" style="edgeStyle=orthogonalEdgeStyle;rounded=0;orthogonalLoop=1;jettySize=auto;html=1;entryX=0.5;entryY=0;entryDx=0;entryDy=0;" edge="1" parent="kXzhzEdGI1KDdlHurPjn-34" source="kXzhzEdGI1KDdlHurPjn-39" target="kXzhzEdGI1KDdlHurPjn-46">
          <mxGeometry relative="1" as="geometry">
            <Array as="points">
              <mxPoint x="240" y="260" />
              <mxPoint x="240" y="260" />
            </Array>
          </mxGeometry>
        </mxCell>
        <mxCell id="kXzhzEdGI1KDdlHurPjn-50" style="edgeStyle=orthogonalEdgeStyle;rounded=0;orthogonalLoop=1;jettySize=auto;html=1;entryX=0.5;entryY=0;entryDx=0;entryDy=0;" edge="1" parent="kXzhzEdGI1KDdlHurPjn-34" source="kXzhzEdGI1KDdlHurPjn-39" target="kXzhzEdGI1KDdlHurPjn-49">
          <mxGeometry relative="1" as="geometry">
            <Array as="points">
              <mxPoint x="420" y="240" />
              <mxPoint x="420" y="240" />
            </Array>
          </mxGeometry>
        </mxCell>
        <mxCell id="kXzhzEdGI1KDdlHurPjn-39" value="Render(DOM 에 적용)" style="rounded=0;whiteSpace=wrap;html=1;" vertex="1" parent="kXzhzEdGI1KDdlHurPjn-34">
          <mxGeometry x="20" y="160" width="480" height="60" as="geometry" />
        </mxCell>
        <mxCell id="kXzhzEdGI1KDdlHurPjn-41" value="ComponentDidMount" style="rounded=0;whiteSpace=wrap;html=1;" vertex="1" parent="kXzhzEdGI1KDdlHurPjn-34">
          <mxGeometry x="20" y="280" width="120" height="60" as="geometry" />
        </mxCell>
        <mxCell id="kXzhzEdGI1KDdlHurPjn-45" style="edgeStyle=orthogonalEdgeStyle;rounded=0;orthogonalLoop=1;jettySize=auto;html=1;exitX=0.5;exitY=1;exitDx=0;exitDy=0;" edge="1" parent="kXzhzEdGI1KDdlHurPjn-34" source="kXzhzEdGI1KDdlHurPjn-37" target="kXzhzEdGI1KDdlHurPjn-39">
          <mxGeometry relative="1" as="geometry">
            <Array as="points">
              <mxPoint x="240" y="120" />
              <mxPoint x="240" y="120" />
            </Array>
          </mxGeometry>
        </mxCell>
        <mxCell id="kXzhzEdGI1KDdlHurPjn-37" value="Update" style="rounded=0;whiteSpace=wrap;html=1;" vertex="1" parent="kXzhzEdGI1KDdlHurPjn-34">
          <mxGeometry x="180" y="40" width="120" height="60" as="geometry" />
        </mxCell>
        <mxCell id="kXzhzEdGI1KDdlHurPjn-46" value="ComponentDidUpdate" style="rounded=0;whiteSpace=wrap;html=1;" vertex="1" parent="kXzhzEdGI1KDdlHurPjn-34">
          <mxGeometry x="180" y="280" width="120" height="60" as="geometry" />
        </mxCell>
        <mxCell id="kXzhzEdGI1KDdlHurPjn-48" style="edgeStyle=orthogonalEdgeStyle;rounded=0;orthogonalLoop=1;jettySize=auto;html=1;exitX=0.5;exitY=1;exitDx=0;exitDy=0;" edge="1" parent="kXzhzEdGI1KDdlHurPjn-34" source="kXzhzEdGI1KDdlHurPjn-38" target="kXzhzEdGI1KDdlHurPjn-39">
          <mxGeometry relative="1" as="geometry">
            <Array as="points">
              <mxPoint x="420" y="100" />
              <mxPoint x="420" y="100" />
            </Array>
          </mxGeometry>
        </mxCell>
        <mxCell id="kXzhzEdGI1KDdlHurPjn-38" value="Unmount" style="rounded=0;whiteSpace=wrap;html=1;" vertex="1" parent="kXzhzEdGI1KDdlHurPjn-34">
          <mxGeometry x="340" y="40" width="160" height="60" as="geometry" />
        </mxCell>
        <mxCell id="kXzhzEdGI1KDdlHurPjn-49" value="ComponentWillUnmount" style="rounded=0;whiteSpace=wrap;html=1;" vertex="1" parent="kXzhzEdGI1KDdlHurPjn-34">
          <mxGeometry x="340" y="280" width="160" height="60" as="geometry" />
        </mxCell>
        <mxCell id="kXzhzEdGI1KDdlHurPjn-35" value="Props" style="rounded=0;whiteSpace=wrap;html=1;" vertex="1" parent="1">
          <mxGeometry x="520" y="80" width="120" height="60" as="geometry" />
        </mxCell>
        <mxCell id="kXzhzEdGI1KDdlHurPjn-51" value="Component(Class)" style="rounded=0;whiteSpace=wrap;html=1;" vertex="1" parent="1">
          <mxGeometry x="1020" y="20" width="360" height="60" as="geometry" />
        </mxCell>
        <mxCell id="kXzhzEdGI1KDdlHurPjn-52" value="State" style="rounded=0;whiteSpace=wrap;html=1;" vertex="1" parent="1">
          <mxGeometry x="1020" y="80" width="120" height="60" as="geometry" />
        </mxCell>
        <mxCell id="kXzhzEdGI1KDdlHurPjn-53" value="HTML" style="rounded=0;whiteSpace=wrap;html=1;" vertex="1" parent="1">
          <mxGeometry x="1140" y="80" width="120" height="60" as="geometry" />
        </mxCell>
        <mxCell id="kXzhzEdGI1KDdlHurPjn-54" value="Function" style="rounded=0;whiteSpace=wrap;html=1;" vertex="1" parent="1">
          <mxGeometry x="1260" y="80" width="120" height="60" as="geometry" />
        </mxCell>
      </root>
    </mxGraphModel>
  </diagram>
</mxfile>
